<mxfile host="app.diagrams.net" agent="Mozilla/5.0 (Windows NT 10.0; Win64; x64) AppleWebKit/537.36 (KHTML, like Gecko) Chrome/127.0.0.0 Safari/537.36" version="24.7.6">
  <diagram name="PÃ¡gina-1" id="MpVjR8IdOXBXsc-C3913">
    <mxGraphModel dx="1050" dy="1734" grid="1" gridSize="10" guides="1" tooltips="1" connect="1" arrows="1" fold="1" page="1" pageScale="1" pageWidth="827" pageHeight="1169" math="0" shadow="0">
      <root>
        <mxCell id="0" />
        <mxCell id="1" parent="0" />
        <mxCell id="Bq8anCT9Kxsh9v7u9YGT-1" value="usuario" style="rounded=0;whiteSpace=wrap;html=1;" parent="1" vertex="1">
          <mxGeometry x="170" y="535" width="120" height="60" as="geometry" />
        </mxCell>
        <mxCell id="Bq8anCT9Kxsh9v7u9YGT-2" value="Receita" style="rounded=0;whiteSpace=wrap;html=1;" parent="1" vertex="1">
          <mxGeometry x="470" y="535" width="120" height="60" as="geometry" />
        </mxCell>
        <mxCell id="Bq8anCT9Kxsh9v7u9YGT-3" value="Admin" style="rounded=0;whiteSpace=wrap;html=1;" parent="1" vertex="1">
          <mxGeometry x="400" y="810" width="120" height="60" as="geometry" />
        </mxCell>
        <mxCell id="Bq8anCT9Kxsh9v7u9YGT-4" value="cria" style="rhombus;whiteSpace=wrap;html=1;" parent="1" vertex="1">
          <mxGeometry x="340" y="535" width="80" height="80" as="geometry" />
        </mxCell>
        <mxCell id="Bq8anCT9Kxsh9v7u9YGT-5" value="avalia" style="rhombus;whiteSpace=wrap;html=1;" parent="1" vertex="1">
          <mxGeometry x="340" y="425" width="80" height="80" as="geometry" />
        </mxCell>
        <mxCell id="Bq8anCT9Kxsh9v7u9YGT-6" value="favorita" style="rhombus;whiteSpace=wrap;html=1;" parent="1" vertex="1">
          <mxGeometry x="340" y="315" width="80" height="80" as="geometry" />
        </mxCell>
        <mxCell id="Bq8anCT9Kxsh9v7u9YGT-7" value="faz" style="rhombus;whiteSpace=wrap;html=1;" parent="1" vertex="1">
          <mxGeometry x="250" y="142.5" width="80" height="80" as="geometry" />
        </mxCell>
        <mxCell id="Bq8anCT9Kxsh9v7u9YGT-8" value="" style="endArrow=none;html=1;rounded=0;entryX=0;entryY=0.5;entryDx=0;entryDy=0;" parent="1" target="Bq8anCT9Kxsh9v7u9YGT-4" edge="1">
          <mxGeometry width="50" height="50" relative="1" as="geometry">
            <mxPoint x="290" y="575" as="sourcePoint" />
            <mxPoint x="340" y="525" as="targetPoint" />
          </mxGeometry>
        </mxCell>
        <mxCell id="Bq8anCT9Kxsh9v7u9YGT-9" value="&lt;span style=&quot;color: rgba(0, 0, 0, 0); font-family: monospace; font-size: 0px; text-align: start; background-color: rgb(251, 251, 251);&quot;&gt;%3CmxGraphModel%3E%3Croot%3E%3CmxCell%20id%3D%220%22%2F%3E%3CmxCell%20id%3D%221%22%20parent%3D%220%22%2F%3E%3CmxCell%20id%3D%222%22%20value%3D%22%22%20style%3D%22endArrow%3Dnone%3Bhtml%3D1%3Brounded%3D0%3BentryX%3D0%3BentryY%3D0.5%3BentryDx%3D0%3BentryDy%3D0%3B%22%20edge%3D%221%22%20parent%3D%221%22%3E%3CmxGeometry%20width%3D%2250%22%20height%3D%2250%22%20relative%3D%221%22%20as%3D%22geometry%22%3E%3CmxPoint%20x%3D%22410%22%20y%3D%22319.5%22%20as%3D%22sourcePoint%22%2F%3E%3CmxPoint%20x%3D%22460%22%20y%3D%22319.5%22%20as%3D%22targetPoint%22%2F%3E%3C%2FmxGeometry%3E%3C%2FmxCell%3E%3C%2Froot%3E%3C%2FmxGraphModel%3E&lt;/span&gt;" style="endArrow=none;html=1;rounded=0;entryX=0;entryY=0.5;entryDx=0;entryDy=0;" parent="1" edge="1">
          <mxGeometry width="50" height="50" relative="1" as="geometry">
            <mxPoint x="420" y="574.5" as="sourcePoint" />
            <mxPoint x="470" y="574.5" as="targetPoint" />
          </mxGeometry>
        </mxCell>
        <mxCell id="Bq8anCT9Kxsh9v7u9YGT-10" value="" style="endArrow=none;html=1;rounded=0;entryX=0;entryY=0.5;entryDx=0;entryDy=0;exitX=0.5;exitY=0;exitDx=0;exitDy=0;" parent="1" source="Bq8anCT9Kxsh9v7u9YGT-1" target="Bq8anCT9Kxsh9v7u9YGT-5" edge="1">
          <mxGeometry width="50" height="50" relative="1" as="geometry">
            <mxPoint x="270" y="535" as="sourcePoint" />
            <mxPoint x="320" y="485" as="targetPoint" />
          </mxGeometry>
        </mxCell>
        <mxCell id="Bq8anCT9Kxsh9v7u9YGT-11" value="" style="endArrow=none;html=1;rounded=0;entryX=1;entryY=0.5;entryDx=0;entryDy=0;exitX=0.5;exitY=0;exitDx=0;exitDy=0;" parent="1" source="Bq8anCT9Kxsh9v7u9YGT-2" target="Bq8anCT9Kxsh9v7u9YGT-5" edge="1">
          <mxGeometry width="50" height="50" relative="1" as="geometry">
            <mxPoint x="490" y="535" as="sourcePoint" />
            <mxPoint x="560" y="465" as="targetPoint" />
          </mxGeometry>
        </mxCell>
        <mxCell id="Bq8anCT9Kxsh9v7u9YGT-12" value="" style="endArrow=none;html=1;rounded=0;entryX=1;entryY=0.5;entryDx=0;entryDy=0;" parent="1" target="Bq8anCT9Kxsh9v7u9YGT-6" edge="1">
          <mxGeometry width="50" height="50" relative="1" as="geometry">
            <mxPoint x="530" y="535" as="sourcePoint" />
            <mxPoint x="460" y="465" as="targetPoint" />
          </mxGeometry>
        </mxCell>
        <mxCell id="Bq8anCT9Kxsh9v7u9YGT-13" value="" style="endArrow=none;html=1;rounded=0;entryX=0;entryY=0.5;entryDx=0;entryDy=0;" parent="1" target="Bq8anCT9Kxsh9v7u9YGT-6" edge="1">
          <mxGeometry width="50" height="50" relative="1" as="geometry">
            <mxPoint x="230" y="535" as="sourcePoint" />
            <mxPoint x="300" y="465" as="targetPoint" />
          </mxGeometry>
        </mxCell>
        <mxCell id="Bq8anCT9Kxsh9v7u9YGT-14" value="" style="endArrow=none;html=1;rounded=0;entryX=0;entryY=0.5;entryDx=0;entryDy=0;" parent="1" target="Bq8anCT9Kxsh9v7u9YGT-7" edge="1">
          <mxGeometry width="50" height="50" relative="1" as="geometry">
            <mxPoint x="230" y="535" as="sourcePoint" />
            <mxPoint x="290" y="355" as="targetPoint" />
          </mxGeometry>
        </mxCell>
        <mxCell id="Bq8anCT9Kxsh9v7u9YGT-15" value="" style="endArrow=none;html=1;rounded=0;entryX=1;entryY=0.5;entryDx=0;entryDy=0;" parent="1" target="Bq8anCT9Kxsh9v7u9YGT-7" edge="1">
          <mxGeometry width="50" height="50" relative="1" as="geometry">
            <mxPoint x="450" y="180" as="sourcePoint" />
            <mxPoint x="720" y="255" as="targetPoint" />
          </mxGeometry>
        </mxCell>
        <mxCell id="Bq8anCT9Kxsh9v7u9YGT-16" value="avalia" style="rhombus;whiteSpace=wrap;html=1;" parent="1" vertex="1">
          <mxGeometry x="490" y="625" width="80" height="80" as="geometry" />
        </mxCell>
        <mxCell id="Bq8anCT9Kxsh9v7u9YGT-17" value="&lt;span style=&quot;color: rgba(0, 0, 0, 0); font-family: monospace; font-size: 0px; text-align: start; background-color: rgb(251, 251, 251);&quot;&gt;%3CmxGraphModel%3E%3Croot%3E%3CmxCell%20id%3D%220%22%2F%3E%3CmxCell%20id%3D%221%22%20parent%3D%220%22%2F%3E%3CmxCell%20id%3D%222%22%20value%3D%22%22%20style%3D%22endArrow%3Dnone%3Bhtml%3D1%3Brounded%3D0%3BentryX%3D0%3BentryY%3D0.5%3BentryDx%3D0%3BentryDy%3D0%3B%22%20edge%3D%221%22%20parent%3D%221%22%3E%3CmxGeometry%20width%3D%2250%22%20height%3D%2250%22%20relative%3D%221%22%20as%3D%22geometry%22%3E%3CmxPoint%20x%3D%22410%22%20y%3D%22319.5%22%20as%3D%22sourcePoint%22%2F%3E%3CmxPoint%20x%3D%22460%22%20y%3D%22319.5%22%20as%3D%22targetPoint%22%2F%3E%3C%2FmxGeometry%3E%3C%2FmxCell%3E%3C%2Froot%3E%3C%2FmxGraphModel%3E&lt;/span&gt;" style="endArrow=none;html=1;rounded=0;entryX=0.5;entryY=1;entryDx=0;entryDy=0;exitX=0.5;exitY=0;exitDx=0;exitDy=0;" parent="1" source="Bq8anCT9Kxsh9v7u9YGT-3" target="Bq8anCT9Kxsh9v7u9YGT-16" edge="1">
          <mxGeometry width="50" height="50" relative="1" as="geometry">
            <mxPoint x="520" y="725" as="sourcePoint" />
            <mxPoint x="570" y="725" as="targetPoint" />
          </mxGeometry>
        </mxCell>
        <mxCell id="Bq8anCT9Kxsh9v7u9YGT-18" value="&lt;span style=&quot;color: rgba(0, 0, 0, 0); font-family: monospace; font-size: 0px; text-align: start; background-color: rgb(251, 251, 251);&quot;&gt;%3CmxGraphModel%3E%3Croot%3E%3CmxCell%20id%3D%220%22%2F%3E%3CmxCell%20id%3D%221%22%20parent%3D%220%22%2F%3E%3CmxCell%20id%3D%222%22%20value%3D%22%22%20style%3D%22endArrow%3Dnone%3Bhtml%3D1%3Brounded%3D0%3BentryX%3D0%3BentryY%3D0.5%3BentryDx%3D0%3BentryDy%3D0%3B%22%20edge%3D%221%22%20parent%3D%221%22%3E%3CmxGeometry%20width%3D%2250%22%20height%3D%2250%22%20relative%3D%221%22%20as%3D%22geometry%22%3E%3CmxPoint%20x%3D%22410%22%20y%3D%22319.5%22%20as%3D%22sourcePoint%22%2F%3E%3CmxPoint%20x%3D%22460%22%20y%3D%22319.5%22%20as%3D%22targetPoint%22%2F%3E%3C%2FmxGeometry%3E%3C%2FmxCell%3E%3C%2Froot%3E%3C%2FmxGraphModel%3E&lt;/span&gt;" style="endArrow=none;html=1;rounded=0;entryX=0.5;entryY=1;entryDx=0;entryDy=0;exitX=0.5;exitY=0;exitDx=0;exitDy=0;" parent="1" edge="1">
          <mxGeometry width="50" height="50" relative="1" as="geometry">
            <mxPoint x="529.29" y="625" as="sourcePoint" />
            <mxPoint x="529.29" y="595" as="targetPoint" />
          </mxGeometry>
        </mxCell>
        <mxCell id="Bq8anCT9Kxsh9v7u9YGT-19" value="1" style="text;html=1;align=center;verticalAlign=middle;resizable=0;points=[];autosize=1;strokeColor=none;fillColor=none;" parent="1" vertex="1">
          <mxGeometry x="470" y="785" width="30" height="30" as="geometry" />
        </mxCell>
        <mxCell id="Bq8anCT9Kxsh9v7u9YGT-20" value="n" style="text;html=1;align=center;verticalAlign=middle;resizable=0;points=[];autosize=1;strokeColor=none;fillColor=none;" parent="1" vertex="1">
          <mxGeometry x="535" y="593" width="30" height="30" as="geometry" />
        </mxCell>
        <mxCell id="Bq8anCT9Kxsh9v7u9YGT-21" value="n" style="text;html=1;align=center;verticalAlign=middle;resizable=0;points=[];autosize=1;strokeColor=none;fillColor=none;" parent="1" vertex="1">
          <mxGeometry x="440" y="550" width="30" height="30" as="geometry" />
        </mxCell>
        <mxCell id="Bq8anCT9Kxsh9v7u9YGT-22" value="n" style="text;html=1;align=center;verticalAlign=middle;resizable=0;points=[];autosize=1;strokeColor=none;fillColor=none;" parent="1" vertex="1">
          <mxGeometry x="290" y="550" width="30" height="30" as="geometry" />
        </mxCell>
        <mxCell id="Bq8anCT9Kxsh9v7u9YGT-23" value="n" style="text;html=1;align=center;verticalAlign=middle;resizable=0;points=[];autosize=1;strokeColor=none;fillColor=none;" parent="1" vertex="1">
          <mxGeometry x="190" y="505" width="30" height="30" as="geometry" />
        </mxCell>
        <mxCell id="Bq8anCT9Kxsh9v7u9YGT-24" value="n" style="text;html=1;align=center;verticalAlign=middle;resizable=0;points=[];autosize=1;strokeColor=none;fillColor=none;" parent="1" vertex="1">
          <mxGeometry x="535" y="505" width="30" height="30" as="geometry" />
        </mxCell>
        <mxCell id="Bq8anCT9Kxsh9v7u9YGT-25" value="nome_usuario" style="ellipse;whiteSpace=wrap;html=1;" parent="1" vertex="1">
          <mxGeometry x="50" y="505" width="100" height="45" as="geometry" />
        </mxCell>
        <mxCell id="Bq8anCT9Kxsh9v7u9YGT-26" value="email" style="ellipse;whiteSpace=wrap;html=1;" parent="1" vertex="1">
          <mxGeometry x="50" y="460" width="100" height="45" as="geometry" />
        </mxCell>
        <mxCell id="Bq8anCT9Kxsh9v7u9YGT-27" value="senha" style="ellipse;whiteSpace=wrap;html=1;" parent="1" vertex="1">
          <mxGeometry x="50" y="415" width="100" height="45" as="geometry" />
        </mxCell>
        <mxCell id="Bq8anCT9Kxsh9v7u9YGT-28" value="img_user" style="ellipse;whiteSpace=wrap;html=1;" parent="1" vertex="1">
          <mxGeometry x="50" y="370" width="100" height="45" as="geometry" />
        </mxCell>
        <mxCell id="Bq8anCT9Kxsh9v7u9YGT-29" value="" style="endArrow=none;html=1;rounded=0;exitX=0.5;exitY=1;exitDx=0;exitDy=0;entryX=0;entryY=0.5;entryDx=0;entryDy=0;" parent="1" source="Bq8anCT9Kxsh9v7u9YGT-25" target="Bq8anCT9Kxsh9v7u9YGT-1" edge="1">
          <mxGeometry width="50" height="50" relative="1" as="geometry">
            <mxPoint x="250" y="505" as="sourcePoint" />
            <mxPoint x="300" y="455" as="targetPoint" />
          </mxGeometry>
        </mxCell>
        <mxCell id="Bq8anCT9Kxsh9v7u9YGT-30" value="nome_receita" style="ellipse;whiteSpace=wrap;html=1;" parent="1" vertex="1">
          <mxGeometry x="650" y="520" width="100" height="45" as="geometry" />
        </mxCell>
        <mxCell id="Bq8anCT9Kxsh9v7u9YGT-31" value="ingredientes" style="ellipse;whiteSpace=wrap;html=1;" parent="1" vertex="1">
          <mxGeometry x="650" y="475" width="100" height="45" as="geometry" />
        </mxCell>
        <mxCell id="Bq8anCT9Kxsh9v7u9YGT-32" value="modo_prep" style="ellipse;whiteSpace=wrap;html=1;" parent="1" vertex="1">
          <mxGeometry x="650" y="430" width="100" height="45" as="geometry" />
        </mxCell>
        <mxCell id="Bq8anCT9Kxsh9v7u9YGT-33" value="tempo_prep" style="ellipse;whiteSpace=wrap;html=1;" parent="1" vertex="1">
          <mxGeometry x="650" y="385" width="100" height="45" as="geometry" />
        </mxCell>
        <mxCell id="Bq8anCT9Kxsh9v7u9YGT-34" value="img_receita" style="ellipse;whiteSpace=wrap;html=1;" parent="1" vertex="1">
          <mxGeometry x="650" y="340" width="100" height="45" as="geometry" />
        </mxCell>
        <mxCell id="Bq8anCT9Kxsh9v7u9YGT-35" value="dificuldade" style="ellipse;whiteSpace=wrap;html=1;" parent="1" vertex="1">
          <mxGeometry x="650" y="295" width="100" height="45" as="geometry" />
        </mxCell>
        <mxCell id="Bq8anCT9Kxsh9v7u9YGT-36" value="custo" style="ellipse;whiteSpace=wrap;html=1;" parent="1" vertex="1">
          <mxGeometry x="650" y="250" width="100" height="45" as="geometry" />
        </mxCell>
        <mxCell id="Bq8anCT9Kxsh9v7u9YGT-39" value="" style="endArrow=none;html=1;rounded=0;entryX=1;entryY=0.5;entryDx=0;entryDy=0;exitX=0.5;exitY=1;exitDx=0;exitDy=0;" parent="1" source="Bq8anCT9Kxsh9v7u9YGT-30" target="Bq8anCT9Kxsh9v7u9YGT-2" edge="1">
          <mxGeometry width="50" height="50" relative="1" as="geometry">
            <mxPoint x="280" y="595" as="sourcePoint" />
            <mxPoint x="330" y="545" as="targetPoint" />
          </mxGeometry>
        </mxCell>
        <mxCell id="Bq8anCT9Kxsh9v7u9YGT-40" value="id_receita" style="ellipse;whiteSpace=wrap;html=1;" parent="1" vertex="1">
          <mxGeometry x="650" y="205" width="100" height="45" as="geometry" />
        </mxCell>
        <mxCell id="Bq8anCT9Kxsh9v7u9YGT-45" value="id_usuario" style="ellipse;whiteSpace=wrap;html=1;" parent="1" vertex="1">
          <mxGeometry x="50" y="325" width="100" height="45" as="geometry" />
        </mxCell>
        <mxCell id="Bq8anCT9Kxsh9v7u9YGT-47" value="status_avaliaÃ§ao" style="ellipse;whiteSpace=wrap;html=1;" parent="1" vertex="1">
          <mxGeometry x="650" y="150" width="100" height="55" as="geometry" />
        </mxCell>
        <mxCell id="Bq8anCT9Kxsh9v7u9YGT-48" value="coment_avaliaÃ§ao" style="ellipse;whiteSpace=wrap;html=1;" parent="1" vertex="1">
          <mxGeometry x="570" y="640" width="100" height="45" as="geometry" />
        </mxCell>
        <mxCell id="Bq8anCT9Kxsh9v7u9YGT-49" value="" style="endArrow=none;html=1;rounded=0;exitX=1;exitY=0.5;exitDx=0;exitDy=0;entryX=0;entryY=0.5;entryDx=0;entryDy=0;" parent="1" source="Bq8anCT9Kxsh9v7u9YGT-50" target="Bq8anCT9Kxsh9v7u9YGT-3" edge="1">
          <mxGeometry width="50" height="50" relative="1" as="geometry">
            <mxPoint x="140" y="780" as="sourcePoint" />
            <mxPoint x="390" y="870" as="targetPoint" />
          </mxGeometry>
        </mxCell>
        <mxCell id="Bq8anCT9Kxsh9v7u9YGT-50" value="bani" style="rhombus;whiteSpace=wrap;html=1;" parent="1" vertex="1">
          <mxGeometry x="60" y="735" width="80" height="80" as="geometry" />
        </mxCell>
        <mxCell id="Bq8anCT9Kxsh9v7u9YGT-51" value="" style="endArrow=none;html=1;rounded=0;exitX=1;exitY=0.5;exitDx=0;exitDy=0;" parent="1" target="Bq8anCT9Kxsh9v7u9YGT-1" edge="1">
          <mxGeometry width="50" height="50" relative="1" as="geometry">
            <mxPoint x="100" y="735" as="sourcePoint" />
            <mxPoint x="440" y="755" as="targetPoint" />
          </mxGeometry>
        </mxCell>
        <mxCell id="Bq8anCT9Kxsh9v7u9YGT-52" value="n" style="text;html=1;align=center;verticalAlign=middle;resizable=0;points=[];autosize=1;strokeColor=none;fillColor=none;" parent="1" vertex="1">
          <mxGeometry x="145" y="588" width="30" height="30" as="geometry" />
        </mxCell>
        <mxCell id="Bq8anCT9Kxsh9v7u9YGT-53" value="1" style="text;html=1;align=center;verticalAlign=middle;resizable=0;points=[];autosize=1;strokeColor=none;fillColor=none;" parent="1" vertex="1">
          <mxGeometry x="370" y="832.5" width="30" height="30" as="geometry" />
        </mxCell>
        <mxCell id="Bq8anCT9Kxsh9v7u9YGT-54" value="msg" style="ellipse;whiteSpace=wrap;html=1;" parent="1" vertex="1">
          <mxGeometry x="50" y="810" width="100" height="75" as="geometry" />
        </mxCell>
        <mxCell id="Bq8anCT9Kxsh9v7u9YGT-55" value="tempo" style="ellipse;whiteSpace=wrap;html=1;" parent="1" vertex="1">
          <mxGeometry x="50" y="885" width="100" height="75" as="geometry" />
        </mxCell>
        <mxCell id="Bq8anCT9Kxsh9v7u9YGT-56" value="comentarios" style="rounded=0;whiteSpace=wrap;html=1;" parent="1" vertex="1">
          <mxGeometry x="450" y="152.5" width="120" height="60" as="geometry" />
        </mxCell>
        <mxCell id="Bq8anCT9Kxsh9v7u9YGT-57" value="" style="endArrow=none;html=1;rounded=0;" parent="1" edge="1">
          <mxGeometry width="50" height="50" relative="1" as="geometry">
            <mxPoint x="520" y="212.5" as="sourcePoint" />
            <mxPoint x="520" y="260" as="targetPoint" />
          </mxGeometry>
        </mxCell>
        <mxCell id="Bq8anCT9Kxsh9v7u9YGT-58" value="tem" style="rhombus;whiteSpace=wrap;html=1;" parent="1" vertex="1">
          <mxGeometry x="485" y="250" width="80" height="80" as="geometry" />
        </mxCell>
        <mxCell id="Bq8anCT9Kxsh9v7u9YGT-59" value="" style="endArrow=none;html=1;rounded=0;entryX=0.5;entryY=1;entryDx=0;entryDy=0;exitX=0.09;exitY=0.971;exitDx=0;exitDy=0;exitPerimeter=0;" parent="1" source="Bq8anCT9Kxsh9v7u9YGT-24" target="Bq8anCT9Kxsh9v7u9YGT-58" edge="1">
          <mxGeometry width="50" height="50" relative="1" as="geometry">
            <mxPoint x="530" y="222.5" as="sourcePoint" />
            <mxPoint x="530" y="270" as="targetPoint" />
          </mxGeometry>
        </mxCell>
        <mxCell id="Bq8anCT9Kxsh9v7u9YGT-60" value="n" style="text;html=1;align=center;verticalAlign=middle;resizable=0;points=[];autosize=1;strokeColor=none;fillColor=none;" parent="1" vertex="1">
          <mxGeometry x="530" y="212.5" width="30" height="30" as="geometry" />
        </mxCell>
        <mxCell id="Bq8anCT9Kxsh9v7u9YGT-61" value="n" style="text;html=1;align=center;verticalAlign=middle;resizable=0;points=[];autosize=1;strokeColor=none;fillColor=none;" parent="1" vertex="1">
          <mxGeometry x="420" y="182.5" width="30" height="30" as="geometry" />
        </mxCell>
        <mxCell id="Bq8anCT9Kxsh9v7u9YGT-62" value="id" style="ellipse;whiteSpace=wrap;html=1;" parent="1" vertex="1">
          <mxGeometry x="460" y="107.5" width="100" height="45" as="geometry" />
        </mxCell>
        <mxCell id="Bq8anCT9Kxsh9v7u9YGT-63" value="" style="endArrow=none;html=1;rounded=0;" parent="1" edge="1">
          <mxGeometry width="50" height="50" relative="1" as="geometry">
            <mxPoint x="470" y="142.5" as="sourcePoint" />
            <mxPoint x="550" y="142.5" as="targetPoint" />
          </mxGeometry>
        </mxCell>
        <mxCell id="Bq8anCT9Kxsh9v7u9YGT-64" value="" style="endArrow=none;html=1;rounded=0;" parent="1" edge="1">
          <mxGeometry width="50" height="50" relative="1" as="geometry">
            <mxPoint x="60" y="354.28999999999996" as="sourcePoint" />
            <mxPoint x="140" y="354.28999999999996" as="targetPoint" />
          </mxGeometry>
        </mxCell>
        <mxCell id="Bq8anCT9Kxsh9v7u9YGT-65" value="conteudo" style="ellipse;whiteSpace=wrap;html=1;" parent="1" vertex="1">
          <mxGeometry x="460" y="62.5" width="100" height="45" as="geometry" />
        </mxCell>
        <mxCell id="Bq8anCT9Kxsh9v7u9YGT-66" value="numero" style="ellipse;whiteSpace=wrap;html=1;" parent="1" vertex="1">
          <mxGeometry x="325" y="400" width="110" height="30" as="geometry" />
        </mxCell>
        <mxCell id="Bq8anCT9Kxsh9v7u9YGT-67" value="descriÃ§Ã£o" style="ellipse;whiteSpace=wrap;html=1;" parent="1" vertex="1">
          <mxGeometry x="50" y="280" width="100" height="45" as="geometry" />
        </mxCell>
        <mxCell id="Bq8anCT9Kxsh9v7u9YGT-68" value="" style="endArrow=none;html=1;rounded=0;entryX=0.984;entryY=0.702;entryDx=0;entryDy=0;exitX=0;exitY=1;exitDx=0;exitDy=0;entryPerimeter=0;" parent="1" source="Bq8anCT9Kxsh9v7u9YGT-40" target="Bq8anCT9Kxsh9v7u9YGT-40" edge="1">
          <mxGeometry width="50" height="50" relative="1" as="geometry">
            <mxPoint x="670" y="170" as="sourcePoint" />
            <mxPoint x="720" y="120" as="targetPoint" />
          </mxGeometry>
        </mxCell>
        <mxCell id="Bq8anCT9Kxsh9v7u9YGT-70" value="" style="endArrow=none;html=1;rounded=0;entryX=0;entryY=0.5;entryDx=0;entryDy=0;" parent="1" source="Bq8anCT9Kxsh9v7u9YGT-1" target="Bq8anCT9Kxsh9v7u9YGT-72" edge="1">
          <mxGeometry width="50" height="50" relative="1" as="geometry">
            <mxPoint x="220" y="530" as="sourcePoint" />
            <mxPoint x="180" y="285" as="targetPoint" />
          </mxGeometry>
        </mxCell>
        <mxCell id="Bq8anCT9Kxsh9v7u9YGT-71" style="edgeStyle=orthogonalEdgeStyle;rounded=0;orthogonalLoop=1;jettySize=auto;html=1;exitX=0;exitY=1;exitDx=0;exitDy=0;" parent="1" source="Bq8anCT9Kxsh9v7u9YGT-72" edge="1">
          <mxGeometry relative="1" as="geometry">
            <mxPoint x="250" y="60" as="targetPoint" />
          </mxGeometry>
        </mxCell>
        <mxCell id="Bq8anCT9Kxsh9v7u9YGT-72" value="denuncia" style="rhombus;whiteSpace=wrap;html=1;" parent="1" vertex="1">
          <mxGeometry x="220" y="20" width="80" height="80" as="geometry" />
        </mxCell>
        <mxCell id="Bq8anCT9Kxsh9v7u9YGT-73" value="" style="endArrow=none;html=1;rounded=0;exitX=0;exitY=0;exitDx=0;exitDy=0;entryX=1;entryY=0.5;entryDx=0;entryDy=0;" parent="1" source="Bq8anCT9Kxsh9v7u9YGT-56" target="Bq8anCT9Kxsh9v7u9YGT-72" edge="1">
          <mxGeometry width="50" height="50" relative="1" as="geometry">
            <mxPoint x="445" y="46" as="sourcePoint" />
            <mxPoint x="330" y="50" as="targetPoint" />
          </mxGeometry>
        </mxCell>
        <mxCell id="Bq8anCT9Kxsh9v7u9YGT-74" value="n" style="text;html=1;align=center;verticalAlign=middle;resizable=0;points=[];autosize=1;strokeColor=none;fillColor=none;" parent="1" vertex="1">
          <mxGeometry x="435" y="122.5" width="30" height="30" as="geometry" />
        </mxCell>
        <mxCell id="Bq8anCT9Kxsh9v7u9YGT-75" value="motivo" style="ellipse;whiteSpace=wrap;html=1;" parent="1" vertex="1">
          <mxGeometry x="200" y="-60" width="120" height="80" as="geometry" />
        </mxCell>
        <mxCell id="Bq8anCT9Kxsh9v7u9YGT-76" value="data_criaÃ§Ã£o" style="ellipse;whiteSpace=wrap;html=1;" parent="1" vertex="1">
          <mxGeometry x="330" y="512.5" width="110" height="30" as="geometry" />
        </mxCell>
        <mxCell id="Bq8anCT9Kxsh9v7u9YGT-77" value="resultado_avaliacao" style="ellipse;whiteSpace=wrap;html=1;" parent="1" vertex="1">
          <mxGeometry x="670" y="630" width="100" height="45" as="geometry" />
        </mxCell>
        <mxCell id="FtkBvJXCj4gGQ55LJAL_-2" value="email" style="ellipse;whiteSpace=wrap;html=1;" vertex="1" parent="1">
          <mxGeometry x="520" y="817.5" width="100" height="45" as="geometry" />
        </mxCell>
        <mxCell id="FtkBvJXCj4gGQ55LJAL_-3" value="senha" style="ellipse;whiteSpace=wrap;html=1;" vertex="1" parent="1">
          <mxGeometry x="520" y="862.5" width="100" height="45" as="geometry" />
        </mxCell>
      </root>
    </mxGraphModel>
  </diagram>
</mxfile>
